<?xml version="1.0" standalone="no"?><!DOCTYPE svg PUBLIC "-//W3C//DTD SVG 1.1//EN" "http://www.w3.org/Graphics/SVG/1.1/DTD/svg11.dtd"><svg t="1501579980145" class="icon" style="" viewBox="0 0 1024 1024" version="1.1" xmlns="http://www.w3.org/2000/svg" p-id="9720" xmlns:xlink="http://www.w3.org/1999/xlink" width="32" height="32"><defs><style type="text/css"></style></defs><path d="M942 80c22 0 40 18 40 40v786c0 22-18 40-40 40H82c-22 0-40-18-40-40V120c0-22 18-40 40-40h860m0-42H82C36.8 38 0 74.8 0 120v786c0 45.2 36.8 82 82 82h860c45.2 0 82-36.8 82-82V120c0-45.2-36.8-82-82-82z" p-id="9721" fill="#d81e06"></path></svg>