<?xml version="1.0" standalone="no"?><!DOCTYPE svg PUBLIC "-//W3C//DTD SVG 1.1//EN" "http://www.w3.org/Graphics/SVG/1.1/DTD/svg11.dtd"><svg t="1501220847105" class="icon" style="" viewBox="0 0 1024 1024" version="1.1" xmlns="http://www.w3.org/2000/svg" p-id="10342" xmlns:xlink="http://www.w3.org/1999/xlink" width="32" height="32"><defs><style type="text/css"></style></defs><path d="M892.234 54c-35.346 0-64 28.654-64 64a63.675 63.675 0 0 0 10.151 34.568L178.111 812.842c-9.014-4.85-19.32-7.605-30.273-7.605-35.346 0-64 28.654-64 64s28.654 64 64 64 64-28.654 64-64a63.753 63.753 0 0 0-5.48-25.91l664.871-664.872a63.87 63.87 0 0 0 21.006 3.546c35.346 0 64-28.654 64-64S927.58 54 892.234 54z" fill="#1296db" p-id="10343"></path></svg>