<?xml version="1.0" standalone="no"?><!DOCTYPE svg PUBLIC "-//W3C//DTD SVG 1.1//EN" "http://www.w3.org/Graphics/SVG/1.1/DTD/svg11.dtd"><svg t="1501221124353" class="icon" style="" viewBox="0 0 1024 1024" version="1.1" xmlns="http://www.w3.org/2000/svg" p-id="10486" xmlns:xlink="http://www.w3.org/1999/xlink" width="32" height="32"><defs><style type="text/css"></style></defs><path d="M557.31 979.054c20.594-20.594 20.594-53.983 0-74.578-0.013-0.013-0.029-0.029-0.045-0.045-7.465-7.465-16.625-12.214-26.241-14.238l0.231-769.346c8.077-2.425 15.687-6.827 22.070-13.206 20.594-20.594 20.594-53.983 0-74.578s-53.983-20.594-74.578 0-20.594 53.983 0 74.578c0.013 0.007 0.020 0.020 0.031 0.029 5.454 5.454 11.81 9.458 18.587 12.013l-0.327 774.62c-4.951 2.334-9.911 5.781-14.294 10.161-0.005 0.005-0.007 0.007-0.013 0.013-20.594 20.594-20.594 53.983 0.001 74.574s53.986 20.594 74.579 0z" fill="#1296db" p-id="10487"></path></svg>