<?xml version="1.0" standalone="no"?><!DOCTYPE svg PUBLIC "-//W3C//DTD SVG 1.1//EN" "http://www.w3.org/Graphics/SVG/1.1/DTD/svg11.dtd"><svg t="1495871163216" class="icon" style="" viewBox="0 0 1024 1024" version="1.1" xmlns="http://www.w3.org/2000/svg" p-id="1136" xmlns:xlink="http://www.w3.org/1999/xlink" width="200" height="200"><defs><style type="text/css"></style></defs><path d="M511.997883 64.00097c-247.421499 0-447.998324 200.578236-447.998324 448.001147 0 247.421499 200.576825 447.998324 447.998324 447.998324 247.425733 0 448.002558-200.578236 448.002558-447.998324C960.001852 264.579206 759.423616 64.00097 511.997883 64.00097L511.997883 64.00097zM260.834116 762.965506l54.938811-146.507259 87.336524 85.902834L260.834116 762.965506 260.834116 762.965506zM425.659015 689.694944l-93.706282-97.179028 261.342116-257.827037 90.164392 92.949926L425.659015 689.694944 425.659015 689.694944zM757.726049 356.617554c-12.232927 13.73435-52.029099 53.867777-52.029099 53.867777l-94.393493-94.042127 46.47073-46.489074c0 0 21.145508-20.057541 48.62832 0 27.450355 20.077297 51.323543 46.489074 51.323543 46.489074S769.967442 342.854982 757.726049 356.617554L757.726049 356.617554zM757.726049 356.617554" p-id="1137" fill="#d81e06"></path></svg>